<!--?xml version="1.0" encoding="utf-8"?-->
<!-- Generator: Adobe Illustrator 19.1.1, SVG Export Plug-In . SVG Version: 6.00 Build 0)  -->
<svg version="1.1" id="_x31_0" xmlns="http://www.w3.org/2000/svg" xmlns:xlink="http://www.w3.org/1999/xlink" x="0px" y="0px" viewBox="0 0 512 512" style="width: 256px; height: 256px; opacity: 1;" xml:space="preserve">
<style type="text/css">
	.st0{fill:#374149;}
</style>
<g>
	<path class="st0" d="M255.969,0C114.863,0,0,114.805,0,255.969C0,397.137,114.863,512,255.969,512
		C397.133,512,512,397.137,512,255.969C512,114.805,397.133,0,255.969,0z M255.969,474.867
		c-120.867,0-218.836-98.031-218.836-218.898S135.102,37.133,255.969,37.133s218.898,97.969,218.898,218.836
		S376.836,474.867,255.969,474.867z" style="fill: rgb(75, 75, 75);"></path>
	<path class="st0" d="M255.969,54.586c-111.027,0-201.383,90.356-201.383,201.383c0,111.09,90.356,201.449,201.383,201.449
		c111.09,0,201.446-90.359,201.446-201.449C457.414,144.942,367.058,54.586,255.969,54.586z M430.488,283.512l-17.262-2.727
		c1.297-8.105,1.981-16.398,1.981-24.816c0-8.602-0.684-17.078-2.043-25.313l17.203-2.785c1.547,9.16,2.293,18.508,2.293,28.098
		c0,9.191-0.738,18.258-2.113,27.094C430.519,283.211,430.516,283.359,430.488,283.512z M410.625,341.25l-15.222-8.414
		c7.984-14.485,13.801-30.266,16.957-47.035l17.145,3.218c-3.422,18.391-9.766,35.746-18.562,51.61
		C410.828,340.832,410.738,341.047,410.625,341.25z M372.793,388.336c-0.183,0.16-0.351,0.344-0.539,0.504l-11.507-13.055
		c12.625-11.078,23.515-24.074,32.117-38.617l14.981,8.91C398.438,361.957,386.602,376.187,372.793,388.336z M319.961,420.649
		l-6.312-16.27c15.843-6.129,30.386-14.73,43.258-25.313l11.078,13.43c-14.133,11.625-30.098,21.114-47.441,27.906
		C320.344,420.477,320.156,420.574,319.961,420.649z M260.054,432.531l-0.374-17.386c17.27-0.371,33.793-3.528,49.266-9.035
		l5.816,16.465c-17.039,6.066-35.234,9.504-54.16,9.93C260.418,432.504,260.238,432.531,260.054,432.531z M142.898,120.434
		c14.172-11.883,30.324-21.598,47.778-28.527l6.438,16.152c-15.782,6.25-30.266,14.977-43.074,25.684L142.898,120.434z
		 M201.879,106.199l-5.942-16.336c17.145-6.25,35.523-9.84,54.586-10.398l0.555,17.39
		C233.813,97.351,217.289,100.57,201.879,106.199z M138.629,124.086l11.574,12.997c-12.566,11.14-23.332,24.262-31.813,38.867
		l-15.039-8.727C112.762,151.008,124.703,136.465,138.629,124.086z M99.328,227.625l-17.141-3.094
		c3.34-18.691,9.653-36.328,18.379-52.481l15.289,8.294C107.996,194.886,102.301,210.793,99.328,227.625z M81.258,230.102
		l17.207,2.535c-1.176,7.614-1.734,15.41-1.734,23.332c0,9.16,0.805,18.133,2.289,26.859l-17.144,2.973
		c-1.668-9.718-2.535-19.68-2.535-29.832C79.34,247.183,79.957,238.519,81.258,230.102z M82.875,291.246l17.011-3.465
		c3.465,16.706,9.469,32.55,17.762,46.91l-15.102,8.602c-9.098-15.754-15.703-33.031-19.5-51.324
		C82.996,291.722,82.922,291.488,82.875,291.246z M145.934,394.039l10.89-13.614c13.059,10.461,27.726,18.875,43.629,24.817
		l-6.125,16.34c-17.449-6.551-33.55-15.786-47.914-27.184C146.258,394.27,146.09,394.164,145.934,394.039z M199.59,423.371
		l5.629-16.52c15.535,5.325,32.122,8.231,49.391,8.356l-0.126,17.39c-18.898-0.121-37.062-3.274-54.105-8.984
		C200.117,423.523,199.851,423.465,199.59,423.371z M211.164,389.274l7.985-23.598l0.133-0.383h-0.004l0.05-0.152
		c-1.172-0.371-2.289-0.805-3.402-1.176l-8.91,23.828c-14.114-5.199-27.11-12.625-38.622-21.847
		c-1.176-0.93-2.347-1.856-3.465-2.848c-11.238-9.527-20.89-20.758-28.578-33.301c-0.098-0.168-0.218-0.324-0.32-0.492
		l21.782-13.363c-0.618-1.055-1.234-2.106-1.856-3.157l-22.218,12.684c-7.301-12.684-12.625-26.61-15.656-41.34
		c-0.246-1.484-0.559-2.91-0.742-4.394c-1.363-7.734-2.043-15.656-2.043-23.766c0-6.898,0.492-13.73,1.454-20.39
		c0.015-0.094,0.019-0.188,0.034-0.278l25.371,3.774c0.184-1.238,0.371-2.414,0.618-3.59l-25.25-4.578
		c2.66-14.856,7.676-28.84,14.668-41.715c0.684-1.297,1.426-2.535,2.23-3.836c7.426-12.828,16.875-24.367,27.895-34.156
		c0.09-0.082,0.171-0.172,0.266-0.25l17.015,19.058c0.93-0.805,1.855-1.61,2.786-2.414l-16.399-19.617
		c11.325-9.469,24.137-17.207,38.063-22.715c1.359-0.554,2.722-1.113,4.144-1.61c13.508-4.91,27.996-7.738,43.09-8.206
		c0.121,0,0.234-0.02,0.355-0.02l0.785,24.848l0.012,0.426c0,0,0,0,0.004,0l0.004,0.16c1.238-0.062,2.473-0.062,3.714-0.062v-25.5
		c16.211,0,31.746,2.786,46.227,7.863c1.426,0.492,2.785,0.989,4.148,1.547c13.805,5.312,26.516,12.754,37.789,21.934
		c0.149,0.121,0.309,0.226,0.454,0.347l-16.023,19.676c0.926,0.805,1.855,1.547,2.785,2.352l16.645-19.122
		c11.203,9.715,20.922,21.226,28.594,34.039c0.742,1.297,1.484,2.535,2.164,3.836c7.027,12.582,12.164,26.32,15.031,40.898
		c0.039,0.191,0.094,0.375,0.129,0.566l-24.446,4.742l-0.269,0.05v0.004l-0.161,0.031c0.25,1.176,0.434,2.352,0.622,3.527l25-4.023
		c1.175,7.305,1.797,14.793,1.797,22.402c0,7.488-0.558,14.793-1.734,21.973c-0.184,1.422-0.434,2.906-0.742,4.332
		c-2.742,14.566-7.785,28.336-14.676,40.93c-0.109,0.195-0.195,0.398-0.305,0.594l-22.152-12.25
		c-0.617,1.05-1.238,2.102-1.855,3.156l21.785,12.996c-7.613,12.809-17.266,24.383-28.406,34.102
		c-1.117,0.988-2.23,1.977-3.406,2.906c-11.274,9.25-24.008,16.789-37.836,22.164c-0.137,0.054-0.27,0.121-0.41,0.172l-9.16-23.637
		c-1.176,0.434-2.29,0.867-3.402,1.301l8.414,23.89c-13.675,4.886-28.281,7.672-43.503,7.981c-1.118,0.062-2.168,0.062-3.282,0.062
		h-1.176c-15.039-0.122-29.523-2.676-43.113-7.211C211.508,389.371,211.332,389.332,211.164,389.274z M429.438,222.426
		l-17.141,3.282c-3.218-16.711-9.098-32.555-17.141-46.973l15.223-8.481c8.855,15.821,15.273,33.153,18.89,51.45
		C429.317,221.95,429.39,222.183,429.438,222.426z M367.55,119.141l-11.015,13.488c-12.871-10.586-27.477-19.187-43.32-25.25
		l6.25-16.219c17.324,6.653,33.309,16.027,47.457,27.496C367.125,118.824,367.344,118.969,367.55,119.141z M314.203,89.25
		l-5.691,16.394c-16.398-5.758-33.977-8.914-52.356-8.914V79.34c19.942,0,39.157,3.382,57.082,9.606
		C313.554,89.058,313.883,89.133,314.203,89.25z M407.59,165.367l-14.973,8.973c-8.664-14.481-19.554-27.477-32.242-38.496
		l11.386-13.118c13.859,12.027,25.832,26.184,35.422,42.016C407.313,164.957,407.465,165.152,407.59,165.367z M105.336,348.117
		l14.847-9.094c8.79,14.418,19.867,27.294,32.742,38.184l-11.324,13.246c-14.039-11.902-26.125-25.984-35.836-41.683
		C105.633,348.547,105.473,348.344,105.336,348.117z" style="fill: rgb(75, 75, 75);"></path>
	<path class="st0" d="M182.508,273.114c-7.242,0-13.122,5.878-13.122,13.121c0,7.18,5.879,13.058,13.122,13.058
		c7.179,0,13.058-5.878,13.058-13.058C195.566,278.992,189.687,273.114,182.508,273.114z M178.086,292.883l11.043-11.043
		c0.867,1.238,1.301,2.722,1.301,4.394c0,4.394-3.527,7.981-7.922,7.981c-1.438,0-2.711-0.418-3.871-1.032
		C178.453,293.07,178.266,293.019,178.086,292.883z" style="fill: rgb(75, 75, 75);"></path>
	<path class="st0" d="M329.554,299.293c7.18,0,13.059-5.878,13.059-13.058c0-7.242-5.879-13.121-13.059-13.121
		c-7.242,0-13.121,5.878-13.121,13.121C316.434,293.414,322.313,299.293,329.554,299.293z M325.129,292.883l11.047-11.043
		c0.863,1.238,1.359,2.722,1.359,4.394c0,4.394-3.59,7.981-7.981,7.981c-1.438,0-2.706-0.418-3.871-1.032
		C325.5,293.07,325.313,293.019,325.129,292.883z" style="fill: rgb(75, 75, 75);"></path>
	<path class="st0" d="M281.094,320.27l-4.207-31.004c11.078-6.934,18.442-19.246,18.442-33.297c0-17.762-11.82-32.801-28.035-37.687
		l-9.098-67.211c-0.371-2.539-4.023-2.539-4.394,0l-9.098,67.211c-16.215,4.824-28.094,19.926-28.094,37.687
		c0,14.05,7.426,26.363,18.504,33.359l-4.211,30.942c-0.618,4.645,2.973,8.726,7.614,8.726h34.965
		C278.125,328.996,281.715,324.914,281.094,320.27z M238.145,266.614c-1.918-3.094-2.973-6.746-2.973-10.645
		c0-5.879,2.477-11.199,6.438-14.977c3.714-3.59,8.789-5.816,14.359-5.816c5.633,0,10.707,2.226,14.418,5.816
		c3.962,3.778,6.379,9.098,6.379,14.977c0,3.84-1.054,7.488-2.914,10.582c-3.586,6.13-10.21,10.215-17.882,10.215
		C248.418,276.766,241.734,272.68,238.145,266.614z" style="fill: rgb(75, 75, 75);"></path>
</g>
</svg>
