<!--?xml version="1.0" encoding="utf-8"?-->
<!-- Generator: Adobe Illustrator 18.1.1, SVG Export Plug-In . SVG Version: 6.00 Build 0)  -->

<svg version="1.1" id="_x31_0" xmlns="http://www.w3.org/2000/svg" xmlns:xlink="http://www.w3.org/1999/xlink" x="0px" y="0px" viewBox="0 0 512 512" style="width: 256px; height: 256px; opacity: 1;" xml:space="preserve">
<style type="text/css">
	.st0{fill:#374149;}
</style>
<g>
	<path class="st0" d="M313.404,255.715V32.57c0-17.992-14.648-32.57-32.641-32.57H170.045c-17.992,0-32.57,14.578-32.57,32.57
		v223.218c-37.547,29.012-58.313,74.95-54.828,123.516c5.121,71.824,63.289,128.781,135.254,132.484
		c2.562,0.141,5.051,0.211,7.539,0.211c78.934,0,143.145-64.211,143.145-143.149C368.584,323.77,348.178,282.594,313.404,255.715z
		 M126.412,426.523c-8.656-14.687-14.125-31.414-15.39-49.206c-3.129-44.446,18.703-84.836,54.898-106.598V32.57
		c0-2.278,1.847-4.125,4.125-4.125h110.718c2.348,0,4.196,1.847,4.196,4.125v238.148c33.777,20.34,55.183,57.102,55.183,98.133
		c0,63.219-51.484,114.703-114.703,114.703c-1.992,0-4.054-0.07-6.046-0.14c-18.043-0.946-35.086-6.211-50.11-14.746
		C151.658,458.57,136.775,443.965,126.412,426.523z" style="fill: rgb(75, 75, 75);"></path>
	<path class="st0" d="M303.736,368.883c0-35.203-23.281-65.043-55.203-74.805V72l-0.398-0.078
		c-6.238,3.118-14.078,5.039-22.718,5.039c-7.543,0-14.426-1.527-20.234-3.965c-0.914-0.406-1.867-0.766-2.726-1.238v0.07
		c-0.051-0.023-0.11-0.043-0.161-0.07v222.321c-32,9.762-55.121,39.602-55.121,74.805c0,43.195,35.039,78.238,78.242,78.238
		C268.693,447.121,303.736,412.078,303.736,368.883z M195.974,330.883c7.602-6.485,18.32-6.082,24.082,0.874
		c5.839,6.883,4.398,17.684-3.043,24.164c-7.598,6.398-19.438,4.719-24.078-0.882C188.213,349.519,188.533,337.359,195.974,330.883z
		" style="fill: rgb(75, 75, 75);"></path>
	<polygon class="st0" points="429.728,229.531 364.67,229.531 364.67,245.992 429.728,245.992 429.732,245.992 429.732,229.531 	" style="fill: rgb(75, 75, 75);"></polygon>
	<polygon class="st0" points="429.728,60.226 429.728,43.774 364.67,43.774 364.67,43.774 364.67,60.226 364.67,60.226 	" style="fill: rgb(75, 75, 75);"></polygon>
	<polygon class="st0" points="397.201,102.554 397.201,94.512 397.201,94.484 397.201,94.484 397.201,94.328 364.67,94.328 
		364.67,94.328 364.67,102.554 364.67,102.554 	" style="fill: rgb(75, 75, 75);"></polygon>
	<polygon class="st0" points="364.67,187.203 364.67,195.438 397.201,195.438 397.201,187.39 397.201,187.367 397.201,187.367 
		397.201,187.203 	" style="fill: rgb(75, 75, 75);"></polygon>
	<polygon class="st0" points="429.728,153.11 429.728,153.11 429.728,136.649 364.67,136.649 364.67,136.649 364.67,153.11 
		364.67,153.11 	" style="fill: rgb(75, 75, 75);"></polygon>
</g>
</svg>
