<!--?xml version="1.0" encoding="utf-8"?-->
<!-- Generator: Adobe Illustrator 18.1.1, SVG Export Plug-In . SVG Version: 6.00 Build 0)  -->

<svg version="1.1" id="_x32_" xmlns="http://www.w3.org/2000/svg" xmlns:xlink="http://www.w3.org/1999/xlink" x="0px" y="0px" viewBox="0 0 512 512" style="width: 256px; height: 256px; opacity: 1;" xml:space="preserve">
<style type="text/css">
	.st0{fill:#4B4B4B;}
</style>
<g>
	<path class="st0" d="M345.295,323.018h-28.521c-1.35,0-2.244,0.895-2.244,2.244v95.214c0,18.196-10.114,28.522-25.382,28.522
		c-15.497,0-25.595-10.326-25.595-28.522v-95.214c0-1.35-0.91-2.244-2.244-2.244h-28.521c-1.35,0-2.244,0.895-2.244,2.244v94.312
		c0,37.961,24.245,58.62,58.604,58.62c34.131,0,58.391-20.659,58.391-58.62v-94.312
		C347.539,323.913,346.645,323.018,345.295,323.018z"></path>
	<path class="st0" d="M504.259,323.018h-28.976c-1.561,0-2.472,0.675-2.911,2.244l-29.644,100.157h-0.667l-30.554-100.157
		c-0.438-1.569-1.35-2.244-2.91-2.244h-29.204c-1.561,0-2.455,0.895-2.017,2.472l48.506,147.988c0.456,1.35,1.35,2.244,2.926,2.244
		h26.05c1.35,0,2.244-0.894,2.682-2.244l48.506-147.988C506.504,323.913,505.61,323.018,504.259,323.018z"></path>
	<path class="st0" d="M136.915,0c14.505,17.952,23.22,40.798,23.22,65.685c-0.016,57.774-46.83,104.589-104.605,104.596
		c-20.407,0-39.432-5.87-55.53-15.976V512L511.999,0H136.915z M42.408,273.196v-50.994h26.245l0.016,50.994H42.408z
		 M192.982,221.706l-36.05-36.058l18.57-18.569l36.049,36.058L192.982,221.706z M212.056,78.832V52.563l50.993-0.008v26.261
		L212.056,78.832z"></path>
</g>
</svg>
